<svg width="156" height="156" viewBox="0 0 156 156" fill="none" xmlns="http://www.w3.org/2000/svg">
<rect width="156" height="156" rx="24" fill="#560A96"/>
<path d="M77.9999 88.6667C83.891 88.6667 88.6666 83.891 88.6666 78C88.6666 72.109 83.891 67.3333 77.9999 67.3333C72.1089 67.3333 67.3333 72.109 67.3333 78C67.3333 83.891 72.1089 88.6667 77.9999 88.6667Z" fill="white"/>
<path d="M68.0001 44.6667L61.9001 51.3333H51.3334C47.6667 51.3333 44.6667 54.3333 44.6667 58V98C44.6667 101.667 47.6667 104.667 51.3334 104.667H104.667C108.333 104.667 111.333 101.667 111.333 98V58C111.333 54.3333 108.333 51.3333 104.667 51.3333H94.1001L88.0001 44.6667H68.0001ZM78.0001 94.6667C68.8001 94.6667 61.3334 87.2 61.3334 78C61.3334 68.8 68.8001 61.3333 78.0001 61.3333C87.2001 61.3333 94.6667 68.8 94.6667 78C94.6667 87.2 87.2001 94.6667 78.0001 94.6667Z" fill="white"/>
</svg>
