<svg width="156" height="156" viewBox="0 0 156 156" fill="none" xmlns="http://www.w3.org/2000/svg">
<rect width="156" height="156" rx="24" fill="#560A96"/>
<path d="M63.9783 56C62.7783 56 61.9783 57.2 61.9783 58V68H57.9783V58C57.9783 56.8 57.1783 56 55.9783 56C54.7783 56 53.9783 57.2 53.9783 58V68H49.9783V58C49.9783 56.8 49.1783 56 47.9783 56C46.7783 56 45.9783 57.2 45.9783 58V71.2C45.9783 74.8 48.7783 77.6 51.9783 78V106C51.9783 108.4 53.5783 110 55.9783 110C58.3783 110 59.9783 108.4 59.9783 106V78C63.1783 77.6 65.9783 74.8 65.9783 71.2V58C65.9783 57.2 65.1783 56 63.9783 56ZM71.9783 58V82H75.9783V106C75.9783 108.4 77.5783 110 79.9783 110C82.3783 110 83.9783 108.4 83.9783 106V46C77.1783 46 71.9783 51.2 71.9783 58ZM99.9783 54C94.3783 54 89.9783 60 89.9783 67.2C89.5783 72 91.9783 76.4 95.9783 79.2V106C95.9783 108.4 97.5783 110 99.9783 110C102.378 110 103.978 108.4 103.978 106V79.2C107.978 76.4 110.378 72 109.978 67.2C109.978 60 105.578 54 99.9783 54Z" fill="white"/>
</svg>
