<svg width="156" height="156" viewBox="0 0 156 156" fill="none" xmlns="http://www.w3.org/2000/svg">
<rect width="156" height="156" rx="24" fill="#560A96"/>
<path d="M111.333 38H44.6667C42.8986 38 41.2029 38.7024 39.9526 39.9526C38.7024 41.2029 38 42.8986 38 44.6667V111.333C38 113.101 38.7024 114.797 39.9526 116.047C41.2029 117.298 42.8986 118 44.6667 118H89.9542C90.8298 118.001 91.697 117.829 92.5058 117.494C93.3146 117.159 94.049 116.666 94.6667 116.046L116.046 94.6667C116.666 94.049 117.159 93.3146 117.494 92.5058C117.829 91.697 118.001 90.8298 118 89.9542V44.6667C118 42.8986 117.298 41.2029 116.047 39.9526C114.797 38.7024 113.101 38 111.333 38ZM64.6667 61.3333H91.3333C92.2174 61.3333 93.0652 61.6845 93.6904 62.3096C94.3155 62.9348 94.6667 63.7826 94.6667 64.6667C94.6667 65.5507 94.3155 66.3986 93.6904 67.0237C93.0652 67.6488 92.2174 68 91.3333 68H64.6667C63.7826 68 62.9348 67.6488 62.3096 67.0237C61.6845 66.3986 61.3333 65.5507 61.3333 64.6667C61.3333 63.7826 61.6845 62.9348 62.3096 62.3096C62.9348 61.6845 63.7826 61.3333 64.6667 61.3333ZM78 94.6667H64.6667C63.7826 94.6667 62.9348 94.3155 62.3096 93.6904C61.6845 93.0652 61.3333 92.2174 61.3333 91.3333C61.3333 90.4493 61.6845 89.6014 62.3096 88.9763C62.9348 88.3512 63.7826 88 64.6667 88H78C78.8841 88 79.7319 88.3512 80.357 88.9763C80.9821 89.6014 81.3333 90.4493 81.3333 91.3333C81.3333 92.2174 80.9821 93.0652 80.357 93.6904C79.7319 94.3155 78.8841 94.6667 78 94.6667ZM64.6667 81.3333C63.7826 81.3333 62.9348 80.9821 62.3096 80.357C61.6845 79.7319 61.3333 78.8841 61.3333 78C61.3333 77.1159 61.6845 76.2681 62.3096 75.643C62.9348 75.0179 63.7826 74.6667 64.6667 74.6667H91.3333C92.2174 74.6667 93.0652 75.0179 93.6904 75.643C94.3155 76.2681 94.6667 77.1159 94.6667 78C94.6667 78.8841 94.3155 79.7319 93.6904 80.357C93.0652 80.9821 92.2174 81.3333 91.3333 81.3333H64.6667ZM91.3333 109.954V91.3333H109.958L91.3333 109.954Z" fill="white"/>
</svg>
