<svg width="156" height="156" viewBox="0 0 156 156" fill="none" xmlns="http://www.w3.org/2000/svg">
<rect width="156" height="156" rx="24" fill="#560A96"/>
<path d="M71.3334 48L64.6667 54.6667V61.3333H54.6667C50.8334 61.3333 48.4001 64.6667 48.0001 68L44.6667 101.333C44.2667 104.667 46.4667 108 51.3334 108H104.667C109.533 108 111.733 104.667 111.333 101.333L108 68C107.6 64.6667 104.867 61.3333 101.333 61.3333H91.3334V54.6667L84.6667 48H71.3334ZM71.3334 54.6667H84.6667V61.3333H71.3334V54.6667ZM74.6667 71.3333H81.3334V81.3333H91.3334V88H81.3334V98H74.6667V88H64.6667V81.3333H74.6667V71.3333Z" fill="white"/>
</svg>
