<svg width="176" height="176" viewBox="0 0 176 176" fill="none" xmlns="http://www.w3.org/2000/svg">
<g style="mix-blend-mode:luminosity">
<path d="M131.519 131.519C155.731 107.307 155.731 68.0515 131.519 43.8396C107.307 19.6276 68.0515 19.6277 43.8396 43.8396C19.6276 68.0516 19.6277 107.307 43.8396 131.519C68.0516 155.731 107.307 155.731 131.519 131.519Z" fill="#FFD05D"/>
<path d="M120.133 34.7539C126.319 44.4322 129.885 55.8569 129.885 68.1549C129.885 102.429 102.087 130.154 67.8854 130.154C56.0241 130.154 44.8904 126.807 35.4304 120.985C46.4185 138.159 65.7751 149.583 87.6785 149.583C121.953 149.583 149.678 121.786 149.678 87.5842C149.751 65.2441 137.889 45.5965 120.133 34.7539Z" fill="#FDC453"/>
<path d="M34.1208 94.2062C34.1208 62.4061 59.881 36.6459 91.681 36.6459C110.237 36.6459 126.829 45.4509 137.307 59.1315C127.338 41.8852 108.709 30.2422 87.3876 30.2422C55.5876 30.2422 29.8274 56.0024 29.8274 87.8025C29.8274 101.046 34.2663 113.199 41.7615 122.877C36.886 114.436 34.1208 104.685 34.1208 94.2062Z" fill="#FFD77F"/>
<path d="M61.3362 100.319C62.8643 113.563 74.0707 123.823 87.6785 123.823C101.286 123.823 112.566 113.563 114.021 100.319H61.3362Z" fill="#695342"/>
<path d="M69.4863 116.619C74.2163 121.131 80.62 123.896 87.6786 123.896C94.4461 123.896 100.559 121.349 105.289 117.201L105.07 116.619C87.3147 108.032 69.7046 116.546 69.4863 116.619Z" fill="#F06669"/>
<path d="M79.1647 69.6102V69.5374C79.1647 63.7887 75.0169 58.5493 68.7587 58.5493C63.8104 58.5493 60.9725 62.115 59.9537 65.4624C59.0077 62.115 56.097 58.5493 51.1487 58.5493C44.8905 58.5493 40.7427 63.7887 40.7427 69.5374V69.6102C40.7427 70.8473 40.7427 83.5091 59.881 93.8423C79.1647 83.5819 79.1647 70.8473 79.1647 69.6102Z" fill="#E62728"/>
<path d="M134.615 69.6102V69.5374C134.615 63.7887 130.467 58.5493 124.209 58.5493C119.26 58.5493 116.422 62.115 115.404 65.4624C114.458 62.115 111.547 58.5493 106.599 58.5493C100.34 58.5493 96.1926 63.7887 96.1926 69.5374V69.6102C96.1926 70.8473 96.1926 83.5091 115.331 93.8423C134.615 83.5819 134.615 70.8473 134.615 69.6102Z" fill="#E62728"/>
</g>
</svg>
